<svg width="139" height="166" viewBox="0 0 139 166" fill="none" xmlns="http://www.w3.org/2000/svg">
<path fill-rule="evenodd" clip-rule="evenodd" d="M131.5 7.35001C121.503 22.047 107.251 33.846 84 46.678C60.341 59.734 49.833 68.224 42.375 80.31L38.5 86.589L38.234 59.456L37.968 32.322L22.734 20.471C14.355 13.953 5.813 7.355 3.75 5.81L0 3V84.118V165.237H54.888H109.775L118.314 150.737L126.853 136.237H82.426H38V132.237C38 127.896 37.824 127.726 34.934 129.272C33.384 130.102 33 131.393 33 135.772V141.237H75C98.1 141.237 116.965 141.574 116.923 141.987C116.88 142.4 114.513 146.562 111.662 151.237L106.479 159.737L57.49 159.997C30.545 160.14 7.95499 160.049 7.28799 159.793C5.89799 159.261 8.189 151.708 12.015 144.208C15.149 138.064 25.312 128.316 32.55 124.512C40.769 120.193 54.07 115.887 68.584 112.846C89.777 108.405 100.963 103.43 109.668 94.574C116.483 87.64 120.576 79.074 122.864 66.955C124.118 60.318 125.379 56.46 126.788 54.955C129.831 51.704 134.815 41.155 136.445 34.517C138.604 25.724 139.084 15.538 137.725 7.368L136.5 0L131.5 7.35001ZM5 79.115C5 114.932 5.161 144.237 5.358 144.237C5.555 144.237 7.363 141.568 9.377 138.305C13.464 131.683 19.853 125.633 27.741 120.916L33 117.77V76.632V35.495L20.25 25.689C13.238 20.296 6.938 15.458 6.25 14.938C5.253 14.184 5 27.179 5 79.115ZM124.5 24.765C114.486 34.868 107.762 39.643 86.447 51.785C67.563 62.542 61.119 67.049 53.833 74.597C45.255 83.483 40.119 95.054 38.504 109.134L37.77 115.531L40.135 114.765C41.436 114.344 50.973 111.828 61.329 109.174C85.872 102.883 91.679 100.89 98.705 96.349C107.27 90.814 112.437 83.811 115.938 72.995C118.054 66.461 117.104 65.78 111.5 69.809C104.744 74.667 99.49 77.266 83.281 83.771C70.507 88.897 69.424 89.17 68.244 87.556C67.545 86.6 67.108 85.412 67.274 84.916C67.439 84.421 73.407 81.665 80.537 78.794C87.667 75.922 95.525 72.542 98 71.283C111.226 64.553 122.96 53.017 128.051 41.737C130.903 35.417 133.449 23.476 132.853 19.215C132.524 16.869 131.946 17.253 124.5 24.765Z" fill="white"/>
</svg>
