<svg width="669" height="166" viewBox="0 0 669 166" fill="none" xmlns="http://www.w3.org/2000/svg">
<path fill-rule="evenodd" clip-rule="evenodd" d="M131.5 7.35001C121.503 22.047 107.251 33.846 84 46.678C60.341 59.734 49.833 68.224 42.375 80.31L38.5 86.589L38.234 59.456L37.968 32.322L22.734 20.471C14.355 13.953 5.813 7.355 3.75 5.81L0 3V84.118V165.237H54.888H109.775L118.314 150.737L126.853 136.237H82.426H38V132.237C38 127.896 37.824 127.726 34.934 129.272C33.384 130.102 33 131.393 33 135.772V141.237H75C98.1 141.237 116.965 141.574 116.923 141.987C116.88 142.4 114.513 146.562 111.662 151.237L106.479 159.737L57.49 159.997C30.545 160.14 7.95499 160.049 7.28799 159.793C5.89799 159.261 8.189 151.708 12.015 144.208C15.149 138.064 25.312 128.316 32.55 124.512C40.769 120.193 54.07 115.887 68.584 112.846C89.777 108.405 100.963 103.43 109.668 94.574C116.483 87.64 120.576 79.074 122.864 66.955C124.118 60.318 125.379 56.46 126.788 54.955C129.831 51.704 134.815 41.155 136.445 34.517C138.604 25.724 139.084 15.538 137.725 7.368L136.5 0L131.5 7.35001ZM5 79.115C5 114.932 5.161 144.237 5.358 144.237C5.555 144.237 7.363 141.568 9.377 138.305C13.464 131.683 19.853 125.633 27.741 120.916L33 117.77V76.632V35.495L20.25 25.689C13.238 20.296 6.938 15.458 6.25 14.938C5.253 14.184 5 27.179 5 79.115ZM124.5 24.765C114.486 34.868 107.762 39.643 86.447 51.785C67.563 62.542 61.119 67.049 53.833 74.597C45.255 83.483 40.119 95.054 38.504 109.134L37.77 115.531L40.135 114.765C41.436 114.344 50.973 111.828 61.329 109.174C85.872 102.883 91.679 100.89 98.705 96.349C107.27 90.814 112.437 83.811 115.938 72.995C118.054 66.461 117.104 65.78 111.5 69.809C104.744 74.667 99.49 77.266 83.281 83.771C70.507 88.897 69.424 89.17 68.244 87.556C67.545 86.6 67.108 85.412 67.274 84.916C67.439 84.421 73.407 81.665 80.537 78.794C87.667 75.922 95.525 72.542 98 71.283C111.226 64.553 122.96 53.017 128.051 41.737C130.903 35.417 133.449 23.476 132.853 19.215C132.524 16.869 131.946 17.253 124.5 24.765Z" fill="black"/>
<path d="M172.931 162.397V158.705C185.143 158.279 186.421 156.859 186.421 143.937V74.6408C186.421 61.7188 185.285 60.2988 173.499 59.8728V56.1808H217.803V59.8728C206.017 60.2988 204.881 61.7188 204.881 74.6408V158.279H217.945C229.873 158.279 237.825 154.729 242.937 147.345C246.061 142.517 247.765 137.973 249.611 128.459L254.581 129.027L251.315 162.397H172.931ZM260.298 88.2728L289.124 86.4268C288.556 94.9468 288.272 104.887 288.272 113.975V144.789C288.272 157.427 289.266 158.847 299.348 158.989V162.397H259.872V158.989C269.954 158.847 270.948 157.427 270.948 144.789V105.455C270.948 92.8168 270.238 91.8228 260.298 91.6808V88.2728ZM269.528 63.9908C269.528 58.3108 274.072 53.7668 279.752 53.7668C285.432 53.7668 289.976 58.3108 289.976 63.9908C289.976 69.6708 285.432 74.2148 279.752 74.2148C274.072 74.2148 269.528 69.6708 269.528 63.9908ZM327.039 154.445L320.365 162.681H315.253C315.821 156.149 315.821 153.735 315.821 140.529V73.2208C315.821 60.7248 314.827 59.4468 304.887 59.4468V56.1808L333.997 54.6188C333.429 65.9788 333.145 74.6408 333.145 83.7288V98.7808C338.825 89.9768 345.357 86.1428 355.155 86.1428C374.609 86.1428 385.969 99.9168 385.969 123.489C385.969 149.191 373.331 164.527 352.173 164.527C342.517 164.527 334.991 161.545 327.039 154.445ZM332.719 127.323C332.719 138.115 333.997 145.783 336.553 151.463C339.251 157.143 345.073 161.119 351.037 161.119C361.545 161.119 367.083 149.049 367.083 125.903C367.083 102.757 361.829 90.5448 351.747 90.5448C345.783 90.5448 340.245 94.8048 337.121 101.621C334.139 108.437 332.719 116.531 332.719 127.323ZM466.327 122.353H417.053C417.195 132.861 418.189 138.967 420.745 144.931C424.863 154.303 431.395 158.989 440.057 158.989C449.855 158.989 458.233 153.167 463.487 142.801L467.037 145.073C459.937 158.563 450.423 164.527 435.797 164.527C413.219 164.527 398.735 149.333 398.735 125.619C398.735 101.763 412.793 86.1428 434.377 86.1428C448.861 86.1428 459.085 92.6748 463.771 104.887C465.333 109.147 466.043 113.407 466.327 122.353ZM417.195 118.235H448.577C448.293 109.289 447.725 104.887 446.163 100.485C443.465 92.9588 439.489 89.4088 433.951 89.4088C427.845 89.4088 423.159 93.6688 420.177 101.905C418.615 106.307 417.763 110.851 417.195 118.235ZM476.348 88.2728L503.044 86.4268C503.328 91.8228 503.47 95.0888 503.47 97.9288C503.47 98.9228 503.47 100.343 503.47 102.189C509.15 91.6808 516.392 86.1428 524.486 86.1428C531.444 86.1428 536.556 90.8288 536.556 96.9348C536.556 102.047 532.296 105.597 526.332 105.597C522.498 105.597 520.652 104.319 519.658 101.053C518.522 97.0768 517.812 96.0828 515.54 96.0828C515.54 96.0828 515.398 96.0828 515.256 96.0828C512.558 96.2248 509.718 98.6388 507.304 102.757C505.032 107.017 503.896 111.845 503.896 118.519V144.789C503.896 157.569 504.748 158.563 515.256 158.989V162.397H475.78V158.989C485.578 158.847 486.572 157.427 486.572 144.789V105.455C486.572 93.3848 485.294 91.6808 476.348 91.6808V88.2728ZM567.665 92.8168V140.245C567.665 146.493 568.091 150.185 569.085 153.025C570.221 156.149 573.061 158.279 576.043 158.279C579.025 158.279 582.433 156.717 585.983 153.877L587.971 157.427C582.149 162.255 575.901 164.527 568.517 164.527C560.849 164.527 555.169 161.687 552.471 156.717C550.767 153.167 550.341 149.759 550.341 137.121V92.8168H542.247V88.5568C548.495 88.2728 552.471 86.1428 555.737 81.0308C558.293 77.0548 559.713 72.9368 560.991 65.8368L568.091 65.1268C567.807 70.9488 567.665 75.3508 567.665 88.2728H584.847V92.8168H567.665ZM662.687 122.353H613.413C613.555 132.861 614.549 138.967 617.105 144.931C621.223 154.303 627.755 158.989 636.417 158.989C646.215 158.989 654.593 153.167 659.847 142.801L663.397 145.073C656.297 158.563 646.783 164.527 632.157 164.527C609.579 164.527 595.095 149.333 595.095 125.619C595.095 101.763 609.153 86.1428 630.737 86.1428C645.221 86.1428 655.445 92.6748 660.131 104.887C661.693 109.147 662.403 113.407 662.687 122.353ZM613.555 118.235H644.937C644.653 109.289 644.085 104.887 642.523 100.485C639.825 92.9588 635.849 89.4088 630.311 89.4088C624.205 89.4088 619.519 93.6688 616.537 101.905C614.975 106.307 614.123 110.851 613.555 118.235ZM632.725 56.0388H650.049L650.475 58.5948L630.311 79.7528L625.767 77.1968L632.725 56.0388Z" fill="black"/>
</svg>
